<svg width="21" height="20" viewBox="0 0 21 20" fill="none" xmlns="http://www.w3.org/2000/svg">
<path d="M20.0308 18.4693L15.3368 13.7762C16.6973 12.1428 17.3757 10.0478 17.2309 7.92691C17.0861 5.80604 16.1293 3.82265 14.5593 2.38932C12.9894 0.955989 10.9274 0.183083 8.80213 0.231383C6.67687 0.279683 4.65205 1.14547 3.14888 2.64864C1.64571 4.15181 0.779927 6.17663 0.731627 8.30188C0.683327 10.4271 1.45623 12.4892 2.88956 14.0591C4.32289 15.629 6.30629 16.5859 8.42715 16.7307C10.548 16.8755 12.6431 16.1971 14.2765 14.8365L18.9696 19.5306C19.0393 19.6003 19.122 19.6556 19.213 19.6933C19.3041 19.731 19.4017 19.7504 19.5002 19.7504C19.5988 19.7504 19.6963 19.731 19.7874 19.6933C19.8784 19.6556 19.9612 19.6003 20.0308 19.5306C20.1005 19.4609 20.1558 19.3782 20.1935 19.2871C20.2312 19.1961 20.2506 19.0985 20.2506 19C20.2506 18.9014 20.2312 18.8038 20.1935 18.7128C20.1558 18.6218 20.1005 18.539 20.0308 18.4693ZM2.25021 8.49997C2.25021 7.16495 2.64609 5.8599 3.38779 4.74987C4.12949 3.63984 5.1837 2.77467 6.4171 2.26378C7.6505 1.75289 9.0077 1.61922 10.3171 1.87967C11.6264 2.14012 12.8292 2.78299 13.7732 3.727C14.7172 4.671 15.3601 5.87374 15.6205 7.18311C15.881 8.49248 15.7473 9.84968 15.2364 11.0831C14.7255 12.3165 13.8603 13.3707 12.7503 14.1124C11.6403 14.8541 10.3352 15.25 9.00021 15.25C7.21061 15.248 5.49488 14.5362 4.22944 13.2708C2.964 12.0053 2.2522 10.2896 2.25021 8.49997Z" fill="#011627"/>
</svg>
