<svg width="186" height="40" viewBox="0 0 186 40" fill="none" xmlns="http://www.w3.org/2000/svg">
<g clip-path="url(#clip0_4_1830)">
<path d="M14.9261 35.7837L41.8847 28.7993L22.3461 9.10558L14.9367 35.7837H14.9261ZM43.458 29.2226L13.7567 36.9266L21.9315 7.52881L43.4686 29.2226H43.458Z" fill="#011627"/>
<path d="M31.839 28.6934L59.3078 36.4185L52.3131 8.84094L31.8496 28.6934H31.839ZM60.4772 37.6249L30.2125 29.1061L52.7702 7.23242L60.4878 37.6144L60.4772 37.6249Z" fill="#011627"/>
<path d="M23.0583 33.0428H51.6008L37.3349 8.3965L23.0583 33.0428ZM53.0572 33.8788H21.6019L37.3349 6.72449L53.0572 33.8788Z" fill="#008037"/>
<path d="M67.7587 21.405C67.7587 19.8778 68.2987 18.7416 69.3665 17.9841C70.4342 17.2266 71.6983 16.8479 73.1343 16.8479C76.3007 16.8479 78.1784 18.0208 78.7798 20.3788H76.9634C76.6443 18.986 75.3679 18.2773 73.1343 18.2773C71.5633 18.2773 70.4588 18.7416 69.8328 19.6701C69.5997 20.0122 69.4769 20.4521 69.4769 20.9774C69.4769 21.967 70.0169 22.7367 71.1092 23.2865C71.6247 23.5553 72.7047 23.9096 74.3616 24.3372C76.0184 24.7648 77.2211 25.2413 77.9698 25.7667C79.013 26.4997 79.5284 27.526 79.5284 28.8455C79.5284 30.4704 78.878 31.7043 77.5893 32.5474C76.5093 33.256 75.1593 33.6103 73.5638 33.6103C69.9556 33.6103 67.8692 32.2419 67.2924 29.5052H69.2683C69.5751 31.2279 71.011 32.0831 73.5638 32.0831C75.3802 32.0831 76.6566 31.5822 77.3807 30.5681C77.663 30.1772 77.798 29.6396 77.798 28.9676C77.798 28.2957 77.5402 27.7459 77.0125 27.3183C76.2639 26.7074 74.8279 26.1454 72.717 25.6445C69.391 24.8748 67.7342 23.4576 67.7342 21.3928L67.7587 21.405Z" fill="#008037"/>
<path d="M91.5436 33.3048V31.5089C91.4454 31.631 91.3473 31.7532 91.2491 31.8754C90.255 32.9872 89.0277 33.5492 87.5672 33.5492C86.1067 33.5492 84.8917 32.9872 83.8853 31.8754C82.9158 30.8002 82.4371 29.5296 82.4371 28.0635C82.4371 26.5974 82.9158 25.3268 83.8853 24.2517C84.8794 23.1399 86.1067 22.5779 87.5672 22.5779C89.0277 22.5779 90.2427 23.1399 91.2491 24.2517C91.3595 24.3739 91.4577 24.496 91.5436 24.606V22.81H93.225V33.3048H91.5436ZM90.4759 25.3879C89.7641 24.6304 88.8804 24.2395 87.8249 24.2395C86.7695 24.2395 85.8981 24.6182 85.174 25.3879C84.4622 26.1454 84.1062 27.0373 84.1062 28.0635C84.1062 29.0898 84.4622 29.9695 85.174 30.7392C85.8858 31.4966 86.7695 31.8876 87.8249 31.8876C88.8804 31.8876 89.7518 31.5089 90.4759 30.7392C91.1877 29.9817 91.5436 29.0898 91.5436 28.0635C91.5436 27.0373 91.1877 26.1576 90.4759 25.3879Z" fill="#008037"/>
<path d="M98.0115 33.3048V15.4185H99.6929V33.3048H98.0115Z" fill="#008037"/>
<path d="M114.776 28.7111H105.51C105.67 29.6152 106.112 30.3482 106.823 30.9347C107.548 31.5211 108.37 31.8143 109.266 31.8143C109.867 31.8143 110.456 31.6799 111.008 31.3989C111.561 31.1179 112.015 30.7392 112.383 30.2383H114.298C113.856 31.2401 113.181 32.0342 112.273 32.6085C111.364 33.1949 110.456 33.4759 109.523 33.4759C108.591 33.4759 107.793 33.3293 107.13 33.0483C106.467 32.7673 105.891 32.3763 105.387 31.8754C104.307 30.8247 103.767 29.5297 103.767 28.0147C103.767 26.4997 104.307 25.2169 105.387 24.1418C106.467 23.0666 107.768 22.5291 109.278 22.5291C110.788 22.5291 112.027 23.0422 113.119 24.0807C114.224 25.1314 114.789 26.3776 114.789 27.8192V28.6989L114.776 28.7111ZM111.647 25.0581C110.959 24.4838 110.162 24.2028 109.266 24.2028C107.903 24.2028 106.823 24.8137 106.038 26.0477C105.792 26.4264 105.633 26.8296 105.535 27.2694H113.009C112.813 26.3776 112.371 25.6445 111.659 25.0459L111.647 25.0581Z" fill="#008037"/>
<path d="M121.882 32.2297C123.416 32.2297 124.19 31.6555 124.19 30.5192C124.19 29.8595 123.637 29.3464 122.545 28.9921C122.079 28.8454 121.588 28.6988 121.048 28.5767C120.508 28.4545 120.017 28.2712 119.538 28.0635C118.998 27.8192 118.593 27.5015 118.311 27.1106C118.041 26.7318 117.906 26.2798 117.906 25.7544C117.906 24.7159 118.274 23.9218 119.01 23.3842C119.747 22.8467 120.63 22.5779 121.649 22.5779C122.668 22.5779 123.515 22.7856 124.202 23.201C124.877 23.6164 125.331 24.3494 125.552 25.4123H123.76C123.576 24.8259 123.306 24.4349 122.938 24.2517C122.57 24.0562 122.128 23.9585 121.612 23.9585C121.097 23.9585 120.643 24.0684 120.262 24.3005C119.882 24.5327 119.685 24.8748 119.685 25.3512C119.685 25.8277 119.845 26.1698 120.164 26.3897C120.471 26.6096 120.864 26.7929 121.33 26.9273C121.796 27.0739 122.287 27.2083 122.827 27.3183C123.367 27.4404 123.87 27.6115 124.337 27.8314C125.417 28.3445 125.969 29.1631 125.969 30.2993C125.969 31.4355 125.564 32.2663 124.754 32.8039C124.349 33.0727 123.895 33.2804 123.404 33.4148C122.913 33.5492 122.385 33.6225 121.809 33.6225C119.366 33.6225 117.967 32.5473 117.599 30.3848H119.366C119.55 31.069 119.845 31.5455 120.274 31.8265C120.692 32.1075 121.244 32.2419 121.907 32.2419L121.882 32.2297Z" fill="#008037"/>
<path d="M137.972 31.6433V33.3171H130.473V17.1045H132.155V31.6433H137.972Z" fill="#011627"/>
<path d="M150.134 31.8754C149.042 32.9383 147.754 33.4759 146.244 33.4759C144.734 33.4759 143.433 32.9383 142.353 31.8754C141.273 30.8247 140.733 29.5297 140.733 28.0147C140.733 26.4997 141.273 25.2169 142.353 24.1418C143.433 23.0666 144.734 22.5291 146.244 22.5291C147.754 22.5291 149.054 23.0666 150.134 24.1418C151.214 25.2169 151.754 26.5119 151.754 28.0147C151.754 29.5174 151.214 30.8247 150.134 31.8754ZM148.944 25.3146C148.195 24.5694 147.287 24.1906 146.232 24.1906C145.176 24.1906 144.28 24.5694 143.519 25.3146C142.771 26.0599 142.39 26.964 142.39 28.0147C142.39 29.0654 142.771 29.9451 143.519 30.6903C144.268 31.4356 145.176 31.8143 146.232 31.8143C147.287 31.8143 148.183 31.4356 148.944 30.6903C149.705 29.9451 150.073 29.0532 150.073 28.0147C150.073 26.9762 149.693 26.0721 148.944 25.3146Z" fill="#011627"/>
<path d="M154.504 22.8222H157.142V18.7416H158.824V22.8222H161.438V24.3738H158.824V33.317H157.142V24.3738H154.504V22.8222Z" fill="#011627"/>
<path d="M168.654 33.5248C167.476 33.5248 166.556 33.1338 165.893 32.3641C165.23 31.5944 164.899 30.5926 164.899 29.383V22.8223H166.58V29.383C166.58 30.0672 166.74 30.6537 167.047 31.1301C167.353 31.6188 167.869 31.8632 168.593 31.8632C169.906 31.8632 170.827 31.4478 171.367 30.6292C171.907 29.8107 172.189 28.6744 172.189 27.2083V22.8223H173.87V33.3171H172.189V31.5211C171.403 32.865 170.225 33.537 168.667 33.537L168.654 33.5248Z" fill="#011627"/>
<path d="M181.443 32.2297C182.977 32.2297 183.75 31.6555 183.75 30.5192C183.75 29.8595 183.198 29.3464 182.105 28.9921C181.639 28.8454 181.148 28.6988 180.608 28.5767C180.068 28.4545 179.577 28.2712 179.099 28.0635C178.559 27.8192 178.154 27.5015 177.871 27.1106C177.601 26.7318 177.466 26.2798 177.466 25.7544C177.466 24.7159 177.834 23.9218 178.571 23.3842C179.307 22.8467 180.191 22.5779 181.209 22.5779C182.228 22.5779 183.075 22.7856 183.762 23.201C184.437 23.6164 184.891 24.3494 185.112 25.4123H183.32C183.136 24.8259 182.866 24.4349 182.498 24.2517C182.13 24.0562 181.688 23.9585 181.173 23.9585C180.657 23.9585 180.203 24.0684 179.823 24.3005C179.442 24.5327 179.246 24.8748 179.246 25.3512C179.246 25.8277 179.405 26.1698 179.724 26.3897C180.031 26.6096 180.424 26.7929 180.89 26.9273C181.357 27.0739 181.848 27.2083 182.388 27.3183C182.928 27.4404 183.431 27.6115 183.897 27.8314C184.977 28.3445 185.53 29.1631 185.53 30.2993C185.53 31.4355 185.125 32.2663 184.315 32.8039C183.91 33.0727 183.455 33.2804 182.965 33.4148C182.474 33.5492 181.946 33.6225 181.369 33.6225C178.927 33.6225 177.528 32.5473 177.159 30.3848H178.927C179.111 31.069 179.405 31.5455 179.835 31.8265C180.252 32.1075 180.804 32.2419 181.467 32.2419L181.443 32.2297Z" fill="#011627"/>
</g>
<defs>
<clipPath id="clip0_4_1830">
<rect width="185.517" height="40" fill="white"/>
</clipPath>
</defs>
</svg>
