<svg width="172" height="33" viewBox="0 0 172 33" fill="none" xmlns="http://www.w3.org/2000/svg">
<g clip-path="url(#clip0_3_891)">
<path d="M1.16934 28.7834L28.128 21.7991L8.58934 2.10534L1.17997 28.7834H1.16934ZM29.7013 22.2224L0 29.9263L8.17476 0.528564L29.7119 22.2224H29.7013Z" fill="white"/>
<path d="M18.0835 21.6934L45.5524 29.4185L38.5576 1.84094L18.0941 21.6934H18.0835ZM46.7217 30.6249L16.457 22.1061L39.0147 0.232422L46.7323 30.6144L46.7217 30.6249Z" fill="white"/>
<path d="M9.30206 26.0427H37.8446L23.5786 1.39638L9.30206 26.0427ZM39.301 26.8787H7.8457L23.5786 -0.275635L39.301 26.8787Z" fill="white"/>
<path d="M54.0015 14.405C54.0015 12.8778 54.5415 11.7416 55.6093 10.9841C56.677 10.2266 57.9411 9.8479 59.3771 9.8479C62.5435 9.8479 64.4212 11.0208 65.0226 13.3788H63.2062C62.8871 11.986 61.6107 11.2773 59.3771 11.2773C57.8061 11.2773 56.7016 11.7416 56.0756 12.6701C55.8425 13.0122 55.7197 13.4521 55.7197 13.9774C55.7197 14.967 56.2597 15.7367 57.352 16.2865C57.8675 16.5553 58.9475 16.9096 60.6043 17.3372C62.2612 17.7648 63.4639 18.2413 64.2126 18.7667C65.2558 19.4997 65.7712 20.526 65.7712 21.8455C65.7712 23.4704 65.1208 24.7043 63.8321 25.5474C62.7521 26.256 61.4021 26.6103 59.8066 26.6103C56.1984 26.6103 54.112 25.2419 53.5352 22.5052H55.5111C55.8179 24.2279 57.2538 25.0831 59.8066 25.0831C61.623 25.0831 62.8994 24.5822 63.6235 23.5681C63.9058 23.1772 64.0408 22.6396 64.0408 21.9676C64.0408 21.2957 63.783 20.7459 63.2553 20.3183C62.5066 19.7074 61.0707 19.1454 58.9598 18.6445C55.6338 17.8748 53.977 16.4576 53.977 14.3928L54.0015 14.405Z" fill="white"/>
<path d="M77.7864 26.3048V24.5089C77.6882 24.631 77.5901 24.7532 77.4919 24.8754C76.4978 25.9872 75.2705 26.5492 73.81 26.5492C72.3495 26.5492 71.1345 25.9872 70.1281 24.8754C69.1586 23.8002 68.6799 22.5296 68.6799 21.0635C68.6799 19.5974 69.1586 18.3268 70.1281 17.2517C71.1222 16.1399 72.3495 15.5779 73.81 15.5779C75.2705 15.5779 76.4855 16.1399 77.4919 17.2517C77.6023 17.3739 77.7005 17.496 77.7864 17.606V15.81H79.4678V26.3048H77.7864ZM76.7187 18.3879C76.0069 17.6304 75.1232 17.2395 74.0677 17.2395C73.0123 17.2395 72.1409 17.6182 71.4168 18.3879C70.705 19.1454 70.349 20.0373 70.349 21.0635C70.349 22.0898 70.705 22.9695 71.4168 23.7392C72.1286 24.4966 73.0123 24.8876 74.0677 24.8876C75.1232 24.8876 75.9946 24.5089 76.7187 23.7392C77.4305 22.9817 77.7864 22.0898 77.7864 21.0635C77.7864 20.0373 77.4305 19.1576 76.7187 18.3879Z" fill="white"/>
<path d="M84.2539 26.3048V8.41846H85.9353V26.3048H84.2539Z" fill="white"/>
<path d="M101.019 21.7111H91.7525C91.9121 22.6152 92.3539 23.3482 93.0657 23.9347C93.7898 24.5211 94.6121 24.8143 95.508 24.8143C96.1094 24.8143 96.6985 24.6799 97.2508 24.3989C97.8031 24.1179 98.2572 23.7392 98.6253 23.2383H100.54C100.098 24.2401 99.4231 25.0342 98.5149 25.6085C97.6067 26.1949 96.6985 26.4759 95.7658 26.4759C94.833 26.4759 94.0353 26.3293 93.3725 26.0483C92.7098 25.7673 92.133 25.3763 91.6298 24.8754C90.5498 23.8247 90.0098 22.5297 90.0098 21.0147C90.0098 19.4997 90.5498 18.2169 91.6298 17.1418C92.7098 16.0666 94.0107 15.5291 95.5203 15.5291C97.0299 15.5291 98.2694 16.0422 99.3617 17.0807C100.466 18.1314 101.031 19.3776 101.031 20.8192V21.6989L101.019 21.7111ZM97.889 18.0581C97.2017 17.4838 96.4039 17.2028 95.508 17.2028C94.1457 17.2028 93.0657 17.8137 92.2803 19.0477C92.0348 19.4264 91.8752 19.8296 91.7771 20.2694H99.2513C99.0549 19.3776 98.6131 18.6445 97.9012 18.0459L97.889 18.0581Z" fill="white"/>
<path d="M108.125 25.2297C109.659 25.2297 110.432 24.6555 110.432 23.5192C110.432 22.8595 109.88 22.3464 108.788 21.9921C108.321 21.8454 107.83 21.6988 107.29 21.5767C106.75 21.4545 106.26 21.2712 105.781 21.0635C105.241 20.8192 104.836 20.5015 104.554 20.1106C104.284 19.7318 104.149 19.2798 104.149 18.7544C104.149 17.7159 104.517 16.9218 105.253 16.3842C105.99 15.8467 106.873 15.5779 107.892 15.5779C108.911 15.5779 109.757 15.7856 110.445 16.201C111.12 16.6164 111.574 17.3494 111.795 18.4123H110.003C109.819 17.8259 109.549 17.4349 109.181 17.2517C108.812 17.0562 108.37 16.9585 107.855 16.9585C107.34 16.9585 106.885 17.0684 106.505 17.3005C106.125 17.5327 105.928 17.8748 105.928 18.3512C105.928 18.8277 106.088 19.1698 106.407 19.3897C106.714 19.6096 107.106 19.7929 107.573 19.9273C108.039 20.0739 108.53 20.2083 109.07 20.3183C109.61 20.4404 110.113 20.6115 110.58 20.8314C111.66 21.3445 112.212 22.1631 112.212 23.2993C112.212 24.4355 111.807 25.2663 110.997 25.8039C110.592 26.0727 110.138 26.2804 109.647 26.4148C109.156 26.5492 108.628 26.6225 108.051 26.6225C105.609 26.6225 104.21 25.5473 103.842 23.3848H105.609C105.793 24.069 106.088 24.5455 106.517 24.8265C106.935 25.1075 107.487 25.2419 108.15 25.2419L108.125 25.2297Z" fill="white"/>
<path d="M124.214 24.6433V26.3171H116.715V10.1045H118.396V24.6433H124.214Z" fill="white"/>
<path d="M136.378 24.8754C135.285 25.9383 133.997 26.4759 132.487 26.4759C130.978 26.4759 129.677 25.9383 128.597 24.8754C127.517 23.8247 126.977 22.5297 126.977 21.0147C126.977 19.4997 127.517 18.2169 128.597 17.1418C129.677 16.0666 130.978 15.5291 132.487 15.5291C133.997 15.5291 135.298 16.0666 136.378 17.1418C137.458 18.2169 137.998 19.5119 137.998 21.0147C137.998 22.5174 137.458 23.8247 136.378 24.8754ZM135.187 18.3146C134.438 17.5694 133.53 17.1906 132.475 17.1906C131.419 17.1906 130.523 17.5694 129.763 18.3146C129.014 19.0599 128.633 19.964 128.633 21.0147C128.633 22.0654 129.014 22.9451 129.763 23.6903C130.511 24.4356 131.419 24.8143 132.475 24.8143C133.53 24.8143 134.426 24.4356 135.187 23.6903C135.948 22.9451 136.316 22.0532 136.316 21.0147C136.316 19.9762 135.936 19.0721 135.187 18.3146Z" fill="white"/>
<path d="M140.746 15.8223H143.385V11.7417H145.066V15.8223H147.68V17.374H145.066V26.3171H143.385V17.374H140.746V15.8223Z" fill="white"/>
<path d="M154.896 26.5248C153.718 26.5248 152.797 26.1338 152.135 25.3641C151.472 24.5944 151.141 23.5926 151.141 22.383V15.8223H152.822V22.383C152.822 23.0672 152.982 23.6537 153.288 24.1301C153.595 24.6188 154.111 24.8632 154.835 24.8632C156.148 24.8632 157.068 24.4478 157.608 23.6292C158.148 22.8107 158.431 21.6744 158.431 20.2083V15.8223H160.112V26.3171H158.431V24.5211C157.645 25.865 156.467 26.537 154.908 26.537L154.896 26.5248Z" fill="white"/>
<path d="M167.685 25.2297C169.22 25.2297 169.993 24.6555 169.993 23.5192C169.993 22.8595 169.44 22.3464 168.348 21.9921C167.882 21.8454 167.391 21.6988 166.851 21.5767C166.311 21.4545 165.82 21.2712 165.341 21.0635C164.801 20.8192 164.396 20.5015 164.114 20.1106C163.844 19.7318 163.709 19.2798 163.709 18.7544C163.709 17.7159 164.077 16.9218 164.814 16.3842C165.55 15.8467 166.434 15.5779 167.452 15.5779C168.471 15.5779 169.318 15.7856 170.005 16.201C170.68 16.6164 171.134 17.3494 171.355 18.4123H169.563C169.379 17.8259 169.109 17.4349 168.741 17.2517C168.373 17.0562 167.931 16.9585 167.415 16.9585C166.9 16.9585 166.446 17.0684 166.065 17.3005C165.685 17.5327 165.489 17.8748 165.489 18.3512C165.489 18.8277 165.648 19.1698 165.967 19.3897C166.274 19.6096 166.667 19.7929 167.133 19.9273C167.6 20.0739 168.09 20.2083 168.63 20.3183C169.17 20.4404 169.674 20.6115 170.14 20.8314C171.22 21.3445 171.772 22.1631 171.772 23.2993C171.772 24.4355 171.367 25.2663 170.557 25.8039C170.152 26.0727 169.698 26.2804 169.207 26.4148C168.716 26.5492 168.189 26.6225 167.612 26.6225C165.17 26.6225 163.77 25.5473 163.402 23.3848H165.17C165.354 24.069 165.648 24.5455 166.078 24.8265C166.495 25.1075 167.047 25.2419 167.71 25.2419L167.685 25.2297Z" fill="white"/>
</g>
<defs>
<clipPath id="clip0_3_891">
<rect width="172" height="33" fill="white"/>
</clipPath>
</defs>
</svg>
