<svg width="140" height="26" viewBox="0 0 140 26" fill="none" xmlns="http://www.w3.org/2000/svg">
<g clip-path="url(#clip0_67_1511)">
<path d="M0.825937 24.6156L22.8197 18.9176L6.87943 2.85071L0.834609 24.6156H0.825937ZM24.1033 19.2629L-0.128052 25.548L6.5412 1.56433L24.1119 19.2629H24.1033Z" fill="#011627"/>
<path d="M14.624 18.8313L37.0341 25.1337L31.3275 2.63492L14.6327 18.8313H14.624ZM37.9881 26.1179L13.2971 19.168L31.7004 1.32263L37.9967 26.1092L37.9881 26.1179Z" fill="#011627"/>
<path d="M7.46049 22.3796H30.7465L19.1078 2.27229L7.46049 22.3796ZM31.9346 23.0616H6.27234L19.1078 0.908203L31.9346 23.0616Z" fill="#008037"/>
<path d="M43.9285 12.8851C43.9285 11.6392 44.369 10.7122 45.2401 10.0942C46.1112 9.47623 47.1425 9.16724 48.314 9.16724C50.8973 9.16724 52.4292 10.1241 52.9198 12.0478H51.4379C51.1776 10.9115 50.1363 10.3334 48.314 10.3334C47.0324 10.3334 46.1312 10.7122 45.6206 11.4697C45.4304 11.7488 45.3302 12.1076 45.3302 12.5362C45.3302 13.3436 45.7708 13.9715 46.6619 14.4201C47.0824 14.6394 47.9636 14.9284 49.3153 15.2773C50.667 15.6261 51.6482 16.0149 52.259 16.4435C53.1101 17.0415 53.5306 17.8788 53.5306 18.9553C53.5306 20.2809 52.9999 21.2876 51.9486 21.9754C51.0675 22.5535 49.9661 22.8426 48.6644 22.8426C45.7207 22.8426 44.0186 21.7262 43.548 19.4935H45.16C45.4103 20.8989 46.5818 21.5966 48.6644 21.5966C50.1463 21.5966 51.1876 21.188 51.7784 20.3607C52.0087 20.0417 52.1188 19.6031 52.1188 19.0549C52.1188 18.5067 51.9085 18.0582 51.478 17.7093C50.8672 17.211 49.6957 16.7525 47.9736 16.3438C45.2601 15.7158 43.9084 14.5596 43.9084 12.8751L43.9285 12.8851Z" fill="#008037"/>
<path d="M63.333 22.5934V21.1282C63.2529 21.2279 63.1728 21.3276 63.0927 21.4273C62.2816 22.3343 61.2804 22.7928 60.0889 22.7928C58.8973 22.7928 57.9061 22.3343 57.0851 21.4273C56.2941 20.5501 55.9036 19.5135 55.9036 18.3174C55.9036 17.1213 56.2941 16.0847 57.0851 15.2076C57.8961 14.3005 58.8973 13.842 60.0889 13.842C61.2804 13.842 62.2716 14.3005 63.0927 15.2076C63.1828 15.3073 63.2629 15.4069 63.333 15.4966V14.0314H64.7047V22.5934H63.333ZM62.4619 16.1346C61.8811 15.5166 61.1602 15.1976 60.2991 15.1976C59.438 15.1976 58.7271 15.5066 58.1364 16.1346C57.5557 16.7525 57.2653 17.4802 57.2653 18.3174C57.2653 19.1547 57.5557 19.8723 58.1364 20.5003C58.7171 21.1183 59.438 21.4372 60.2991 21.4372C61.1602 21.4372 61.8711 21.1282 62.4619 20.5003C63.0426 19.8823 63.333 19.1547 63.333 18.3174C63.333 17.4802 63.0426 16.7625 62.4619 16.1346Z" fill="#008037"/>
<path d="M68.6096 22.5934V8.0011H69.9814V22.5934H68.6096Z" fill="#008037"/>
<path d="M82.2869 18.8456H74.7273C74.8575 19.5832 75.218 20.1813 75.7987 20.6597C76.3894 21.1382 77.0603 21.3774 77.7912 21.3774C78.2818 21.3774 78.7624 21.2677 79.213 21.0385C79.6636 20.8092 80.034 20.5002 80.3344 20.0916H81.8964C81.5359 20.9089 80.9853 21.5568 80.2443 22.0253C79.5034 22.5037 78.7624 22.7329 78.0015 22.7329C77.2405 22.7329 76.5897 22.6133 76.049 22.3841C75.5083 22.1548 75.0377 21.8359 74.6272 21.4272C73.7461 20.57 73.3055 19.5135 73.3055 18.2775C73.3055 17.0415 73.7461 15.995 74.6272 15.1178C75.5083 14.2407 76.5697 13.8021 77.8012 13.8021C79.0328 13.8021 80.0441 14.2208 80.9352 15.068C81.8363 15.9252 82.2969 16.9419 82.2969 18.118V18.8357L82.2869 18.8456ZM79.7337 15.8654C79.173 15.3969 78.5221 15.1677 77.7912 15.1677C76.6798 15.1677 75.7987 15.666 75.1579 16.6727C74.9576 16.9817 74.8275 17.3107 74.7474 17.6695H80.8451C80.6849 16.9419 80.3244 16.3438 79.7437 15.8554L79.7337 15.8654Z" fill="#008037"/>
<path d="M88.0843 21.7163C89.3358 21.7163 89.9666 21.2478 89.9666 20.3209C89.9666 19.7826 89.5161 19.364 88.6249 19.0749C88.2445 18.9553 87.844 18.8357 87.4034 18.736C86.9628 18.6364 86.5623 18.4869 86.1718 18.3174C85.7313 18.1181 85.4009 17.8589 85.1706 17.54C84.9503 17.231 84.8402 16.8622 84.8402 16.4336C84.8402 15.5863 85.1405 14.9385 85.7413 14.4999C86.3421 14.0613 87.063 13.842 87.894 13.842C88.7251 13.842 89.4159 14.0115 89.9767 14.3504C90.5273 14.6893 90.8978 15.2873 91.0781 16.1545H89.6162C89.466 15.676 89.2457 15.3571 88.9453 15.2076C88.645 15.0481 88.2845 14.9684 87.864 14.9684C87.4434 14.9684 87.073 15.0581 86.7626 15.2474C86.4522 15.4368 86.292 15.7159 86.292 16.1046C86.292 16.4934 86.4222 16.7725 86.6825 16.9519C86.9328 17.1313 87.2532 17.2808 87.6337 17.3904C88.0142 17.5101 88.4147 17.6197 88.8552 17.7094C89.2958 17.8091 89.7063 17.9486 90.0868 18.128C90.9679 18.5467 91.4185 19.2145 91.4185 20.1415C91.4185 21.0684 91.0881 21.7462 90.4272 22.1848C90.0968 22.4041 89.7263 22.5735 89.3258 22.6832C88.9253 22.7928 88.4948 22.8526 88.0242 22.8526C86.0317 22.8526 84.8902 21.9755 84.5898 20.2112H86.0317C86.1819 20.7694 86.4222 21.1581 86.7726 21.3874C87.113 21.6166 87.5636 21.7263 88.1043 21.7263L88.0843 21.7163Z" fill="#008037"/>
<path d="M101.211 21.2378V22.6034H95.0931V9.37659H96.4649V21.2378H101.211Z" fill="#011627"/>
<path d="M111.133 21.4272C110.242 22.2944 109.191 22.7329 107.959 22.7329C106.728 22.7329 105.667 22.2944 104.785 21.4272C103.904 20.57 103.464 19.5135 103.464 18.2775C103.464 17.0415 103.904 15.995 104.785 15.1178C105.667 14.2407 106.728 13.8021 107.959 13.8021C109.191 13.8021 110.252 14.2407 111.133 15.1178C112.015 15.995 112.455 17.0515 112.455 18.2775C112.455 19.5035 112.015 20.57 111.133 21.4272ZM110.162 16.0747C109.551 15.4667 108.811 15.1577 107.949 15.1577C107.088 15.1577 106.357 15.4667 105.737 16.0747C105.126 16.6827 104.815 17.4203 104.815 18.2775C104.815 19.1347 105.126 19.8524 105.737 20.4604C106.347 21.0684 107.088 21.3774 107.949 21.3774C108.811 21.3774 109.541 21.0684 110.162 20.4604C110.783 19.8524 111.083 19.1247 111.083 18.2775C111.083 17.4303 110.773 16.6927 110.162 16.0747Z" fill="#011627"/>
<path d="M114.698 14.0414H116.851V10.7123H118.222V14.0414H120.355V15.3073H118.222V22.6034H116.851V15.3073H114.698V14.0414Z" fill="#011627"/>
<path d="M126.242 22.7729C125.281 22.7729 124.53 22.4539 123.99 21.8259C123.449 21.198 123.179 20.3807 123.179 19.3939V14.0414H124.55V19.3939C124.55 19.9521 124.68 20.4305 124.931 20.8192C125.181 21.2179 125.602 21.4173 126.192 21.4173C127.264 21.4173 128.015 21.0784 128.455 20.4106C128.896 19.7428 129.126 18.8158 129.126 17.6197V14.0414H130.498V22.6034H129.126V21.1382C128.485 22.2346 127.524 22.7828 126.252 22.7828L126.242 22.7729Z" fill="#011627"/>
<path d="M136.676 21.7163C137.927 21.7163 138.558 21.2478 138.558 20.3209C138.558 19.7826 138.108 19.364 137.216 19.0749C136.836 18.9553 136.435 18.8357 135.995 18.736C135.554 18.6364 135.154 18.4869 134.763 18.3174C134.323 18.1181 133.992 17.8589 133.762 17.54C133.542 17.231 133.432 16.8622 133.432 16.4336C133.432 15.5863 133.732 14.9385 134.333 14.4999C134.933 14.0613 135.654 13.842 136.485 13.842C137.316 13.842 138.007 14.0115 138.568 14.3504C139.119 14.6893 139.489 15.2873 139.669 16.1545H138.208C138.057 15.676 137.837 15.3571 137.537 15.2076C137.236 15.0481 136.876 14.9684 136.455 14.9684C136.035 14.9684 135.664 15.0581 135.354 15.2474C135.044 15.4368 134.883 15.7159 134.883 16.1046C134.883 16.4934 135.014 16.7725 135.274 16.9519C135.524 17.1313 135.845 17.2808 136.225 17.3904C136.606 17.5101 137.006 17.6197 137.447 17.7094C137.887 17.8091 138.298 17.9486 138.678 18.128C139.559 18.5467 140.01 19.2145 140.01 20.1415C140.01 21.0684 139.679 21.7462 139.019 22.1848C138.688 22.4041 138.318 22.5735 137.917 22.6832C137.517 22.7928 137.086 22.8526 136.616 22.8526C134.623 22.8526 133.482 21.9755 133.181 20.2112H134.623C134.773 20.7694 135.014 21.1581 135.364 21.3874C135.704 21.6166 136.155 21.7263 136.696 21.7263L136.676 21.7163Z" fill="#011627"/>
</g>
<defs>
<clipPath id="clip0_67_1511">
<rect width="140" height="25.2252" fill="white" transform="translate(0 0.387451)"/>
</clipPath>
</defs>
</svg>
